<?xml version="1.0" encoding="utf-8"?>
<!-- Generator: Adobe Illustrator 17.0.0, SVG Export Plug-In . SVG Version: 6.00 Build 0)  -->
<!DOCTYPE svg PUBLIC "-//W3C//DTD SVG 1.1//EN" "http://www.w3.org/Graphics/SVG/1.1/DTD/svg11.dtd">
<svg version="1.1" id="Layer_1" xmlns="http://www.w3.org/2000/svg" xmlns:xlink="http://www.w3.org/1999/xlink" x="0px" y="0px"
	 width="946.455px" height="263.333px" viewBox="39.5 13.167 946.455 263.333" enable-background="new 39.5 13.167 946.455 263.333"
	 xml:space="preserve">
<g id="surface1">
	<path fill="#1C9957" d="M276.5,256.75V59.25c0-10.904-8.846-19.75-19.75-19.75H59.25c-10.904,0-19.75,8.846-19.75,19.75v197.5
		c0,10.904,8.846,19.75,19.75,19.75h197.5C267.654,276.5,276.5,267.654,276.5,256.75z"/>
	<path fill="#3E7BF1" d="M59.25,276.5h197.5c10.904,0-98.75-105.333-98.75-105.333S48.346,276.5,59.25,276.5z"/>
	<path fill="#CBCCC9" d="M276.5,256.75V59.25c0-10.904-105.333,98.75-105.333,98.75S276.5,267.654,276.5,256.75z"/>
	<path fill="#EFEFEF" d="M256.75,276.5c10.904,0,19.75-8.846,19.75-19.75v-1.62L172.787,151.417l-21.37,21.37L255.13,276.5H256.75z"
		/>
	<path fill="#FFD73D" d="M276.5,59.25c0-10.904-8.846-19.75-19.75-19.75h-1.62L39.5,255.13v1.62c0,10.904,8.846,19.75,19.75,19.75
		h1.62L276.5,60.87V59.25z"/>
	<path fill="#D73F35" d="M237,13.167c-36.363,0-65.833,29.471-65.833,65.833c0,44.849,50.455,61.204,61.436,130.689
		c0.72,4.475,0.771,7.561,4.397,7.561s3.677-3.086,4.397-7.561c10.981-69.485,61.436-85.84,61.436-130.689
		C302.833,42.637,273.363,13.167,237,13.167z"/>
	<path fill="#752622" d="M260.042,79c0,12.729-10.312,23.042-23.042,23.042S213.958,91.729,213.958,79S224.271,55.958,237,55.958
		S260.042,66.271,260.042,79z"/>
	<path fill="#FFFFFF" d="M95.407,82.497v13.835h19.724c-2.597,8.383-9.592,14.375-19.724,14.375
		c-12.061,0-21.833-9.772-21.833-21.833c0-12.087,9.772-21.859,21.833-21.859c5.426,0,10.389,2.006,14.195,5.272l10.184-10.184
		c-6.429-5.863-14.967-9.438-24.379-9.438c-20.007,0-36.208,16.227-36.208,36.208s16.201,36.208,36.208,36.208
		c31.682,0,37.108-28.416,34.125-42.535L95.407,82.497z"/>
</g>
<path fill="#EA4335" d="M619.926,161.048c0,30.303-23.706,52.632-52.798,52.632s-52.798-22.33-52.798-52.632
	c0-30.516,23.706-52.632,52.798-52.632S619.926,130.531,619.926,161.048z M596.813,161.048c0-18.936-13.739-31.893-29.686-31.893
	s-29.686,12.956-29.686,31.893c0,18.746,13.74,31.893,29.686,31.893S596.813,179.77,596.813,161.048z"/>
<path fill="#FBBC05" d="M733.828,161.048c0,30.303-23.706,52.632-52.798,52.632c-29.092,0-52.798-22.33-52.798-52.632
	c0-30.493,23.706-52.632,52.798-52.632C710.122,108.415,733.828,130.531,733.828,161.048z M710.716,161.048
	c0-18.936-13.739-31.893-29.686-31.893s-29.686,12.956-29.686,31.893c0,18.746,13.739,31.893,29.686,31.893
	S710.716,179.77,710.716,161.048z"/>
<path fill="#4285F4" d="M842.984,111.595v94.491c0,38.869-22.923,54.744-50.022,54.744c-25.509,0-40.862-17.062-46.652-31.015
	l20.123-8.377c3.583,8.566,12.363,18.675,26.506,18.675c17.346,0,28.096-10.702,28.096-30.849v-7.57h-0.807
	c-5.173,6.383-15.14,11.96-27.716,11.96c-26.316,0-50.425-22.923-50.425-52.419c0-29.71,24.109-52.822,50.425-52.822
	c12.553,0,22.519,5.576,27.716,11.77h0.807v-8.566h21.95L842.984,111.595z M822.672,161.237c0-18.533-12.363-32.082-28.096-32.082
	c-15.946,0-29.306,13.55-29.306,32.082c0,18.343,13.36,31.703,29.306,31.703C810.309,192.94,822.672,179.58,822.672,161.237z"/>
<path fill="#34A853" d="M879.172,56.21v154.243h-22.543V56.21H879.172z"/>
<path fill="#EA4335" d="M967.019,178.37l17.94,11.96c-5.79,8.566-19.743,23.326-43.852,23.326
	c-29.899,0-52.229-23.113-52.229-52.632c0-31.299,22.519-52.632,49.642-52.632c27.313,0,40.673,21.736,45.039,33.482l2.397,5.98
	l-70.358,29.14c5.387,10.56,13.763,15.946,25.509,15.946C952.876,192.94,961.039,187.15,967.019,178.37L967.019,178.37z
	 M911.8,159.434l47.032-19.529c-2.587-6.573-10.37-11.153-19.529-11.153C927.557,128.752,911.207,139.121,911.8,159.434z"/>
<path fill="#4285F4" d="M428.998,147.356v-22.33h75.247c0.736,3.892,1.115,8.495,1.115,13.478c0,16.753-4.58,37.469-19.34,52.229
	c-14.356,14.95-32.699,22.923-56.999,22.923c-45.039,0-82.911-36.686-82.911-81.725s37.872-81.725,82.911-81.725
	c24.916,0,42.666,9.777,56.002,22.519l-15.756,15.756c-9.563-8.97-22.519-15.946-40.269-15.946
	c-32.889,0-58.612,26.506-58.612,59.395s25.723,59.395,58.612,59.395c21.333,0,33.482-8.566,41.266-16.35
	c6.312-6.312,10.465-15.329,12.102-27.645L428.998,147.356z"/>
</svg>
