<svg id="Layer_1" data-name="Layer 1" xmlns="http://www.w3.org/2000/svg" viewBox="0 0 500.91 499.91"><defs><style>.cls-1{fill:#fefefe;}.cls-2{fill:#0819fb;}</style></defs><path class="cls-1" d="M250.82,498.09v1.82H474.75c15.65,0,26.16-10.55,26.16-26.3V25.72C500.91,10.81,490.14,0,475.07,0c-12.65,0-25.3.26-37.95.25C412.29.25,387.46.06,362.64,0c-15.71,0-26.37,10.51-26.57,26.19-.13,10,.09,20-.21,30-.11,3.53,1.23,4,4.26,4,32,.11,64,.43,96,.48,3.85,0,4.94.89,4.93,4.87q-.17,184.46,0,368.9c0,4.05-.83,5.34-5.11,5.27-23.15-.36-46.31-.43-69.47-.52Q216,438.56,65.52,438.09c-3.94,0-4.88-1-4.83-4.93.28-22,.17-44,.37-66,0-3.21-.74-4.27-4.1-4.2-9.82.19-19.65,0-29.48,0-16.4,0-27,10.29-27.12,26.65Q.08,429.84,0,470.07c0,17.43,10.39,28,27.88,28Q139.36,498.14,250.82,498.09Z"/><path class="cls-1" d="M0,176.14q0,74,0,148c0,17.22,11.13,28.43,28.37,28.52,90.46.46,180.92.73,271.38,1.51,12.77.11,26.49-10.19,26.47-26.29q-.12-73.47.89-146.93a26.44,26.44,0,0,0-26.85-27c-32.15.36-64.3.08-96.45.11-16,0-26.58,10.49-26.73,26.54-.09,9.66.13,19.33-.19,29-.13,3.74.84,4.7,4.59,4.71,26.82,0,53.64.38,80.46.41,3.68,0,4.81.85,4.75,4.68q-.52,34.73-.5,69.46c0,4.29-.9,5.46-5.41,5.43q-98.21-.76-196.42-1c-4,0-4.45-1.4-4.44-4.82q.14-111.46-.06-222.92c0-4.74,1.41-5.54,5.75-5.54q128,.2,255.91.18c4.1,0,5.78-.54,5.55-5.25-.46-9.31-.12-18.65-.14-28C326.9,10.42,316.54,0,300.11,0Q164.4,0,28.7,0C11.16,0,0,11.21,0,28.69Q0,102.42,0,176.14Z"/><path class="cls-2" d="M27.89,498.08C10.4,498.06,0,487.5,0,470.07q.12-40.24.35-80.48c.12-16.36,10.72-26.69,27.12-26.65,9.83,0,19.66.23,29.48,0,3.36-.07,4.13,1,4.1,4.2-.2,22-.09,44-.37,66,0,3.92.89,4.92,4.83,4.93q150.47.41,300.91,1.09c23.16.09,46.32.16,69.47.52,4.28.07,5.12-1.22,5.11-5.27q-.17-184.44,0-368.9c0-4-1.08-4.87-4.93-4.87-32,0-64-.37-96-.48-3,0-4.37-.45-4.26-4,.3-10,.08-20,.21-30C336.27,10.53,346.93,0,362.64,0c24.82,0,49.65.23,74.48.26,12.65,0,25.3-.26,37.95-.25,15.07,0,25.84,10.78,25.84,25.69V473.61c0,15.75-10.51,26.3-26.16,26.3H250.82"/><path class="cls-2" d="M0,176.14Q0,102.42,0,28.69C0,11.21,11.16,0,28.7,0Q164.4,0,300.11,0c16.43,0,26.79,10.41,26.83,26.84,0,9.33-.32,18.67.14,28,.23,4.71-1.45,5.26-5.55,5.25q-127.95-.16-255.91-.18c-4.34,0-5.76.8-5.75,5.54q.27,111.47.06,222.92c0,3.42.4,4.81,4.44,4.82q98.22.27,196.42,1c4.51,0,5.42-1.14,5.41-5.43q-.07-34.72.5-69.46c.06-3.83-1.07-4.67-4.75-4.68-26.82,0-53.64-.39-80.46-.41-3.75,0-4.72-1-4.59-4.71.32-9.65.1-19.32.19-29,.15-16.05,10.68-26.53,26.73-26.54,32.15,0,64.3.25,96.45-.11a26.44,26.44,0,0,1,26.85,27q-1.12,73.46-.89,146.93c0,16.1-13.7,26.4-26.47,26.29-90.46-.78-180.92-1.05-271.38-1.51C11.14,352.52,0,341.31,0,324.09Q0,250.11,0,176.14Z"/></svg>