<svg id="Layer_1" data-name="Layer 1" xmlns="http://www.w3.org/2000/svg" viewBox="0 0 1280 1280"><defs><style>.cls-1{fill:#0718fc;stroke:#000;stroke-miterlimit:10;}</style></defs><polygon class="cls-1" points="940 490 940 466.79 640 293.59 340 466.79 340 813.21 640 986.41 940 813.21 940 690 890 690 890 784.34 640 928.68 390 784.34 390 495.66 640 351.32 880.2 490 680.2 490 640 466.79 490 553.4 490 726.6 640 813.21 790 726.6 790 690 640 690 640 590 1040 590 1040 870.94 640 1101.88 240 870.94 240 409.06 640 178.12 1040 409.06 1040 490 940 490"/></svg>