<?xml version="1.0" encoding="utf-8"?>
<!-- Generator: Adobe Illustrator 17.0.0, SVG Export Plug-In . SVG Version: 6.00 Build 0)  -->
<!DOCTYPE svg PUBLIC "-//W3C//DTD SVG 1.1//EN" "http://www.w3.org/Graphics/SVG/1.1/DTD/svg11.dtd">
<svg version="1.1"
	 id="svg3959" xmlns:svg="http://www.w3.org/2000/svg" xmlns:rdf="http://www.w3.org/1999/02/22-rdf-syntax-ns#" xmlns:cc="http://creativecommons.org/ns#" xmlns:dc="http://purl.org/dc/elements/1.1/"
	 xmlns="http://www.w3.org/2000/svg" xmlns:xlink="http://www.w3.org/1999/xlink" x="0px" y="0px" width="301.503px"
	 height="78.947px" viewBox="4.705 1.96 301.503 78.947" enable-background="new 4.705 1.96 301.503 78.947" xml:space="preserve">
<g id="g3967" transform="matrix(1.25,0,0,-1.25,-379.65304,470.97768)">
	<g id="g4885" transform="matrix(0.41144603,0,0,0.41144603,179.02789,270.89279)">
		<g>
			<defs>
				<rect id="SVGID_1_" x="417.071" y="101.896" width="19.338" height="3.915"/>
			</defs>
			<clipPath id="SVGID_2_">
				<use xlink:href="#SVGID_1_"  overflow="visible"/>
			</clipPath>
			<g id="g4887" clip-path="url(#SVGID_2_)">
				<g id="g4893" transform="translate(445.53909,103.85249)">
					<path id="path4895" fill="#2B5860" d="M0,0c0-2.102-8.416-3.806-18.798-3.806c-10.383,0-18.801,1.704-18.801,3.806
						s8.418,3.807,18.801,3.807C-8.416,3.807,0,2.102,0,0"/>
				</g>
			</g>
		</g>
	</g>
	<g id="g4897" transform="matrix(0.41144603,0,0,0.41144603,179.02789,270.89279)">
		<g>
			<defs>
				<rect id="SVGID_3_" x="354.284" y="101.896" width="19.337" height="3.915"/>
			</defs>
			<clipPath id="SVGID_4_">
				<use xlink:href="#SVGID_3_"  overflow="visible"/>
			</clipPath>
			<g id="g4899" clip-path="url(#SVGID_4_)">
				<g id="g4905" transform="translate(382.7505,103.85249)">
					<path id="path4907" fill="#2B5860" d="M0,0c0-2.102-8.417-3.806-18.799-3.806c-10.384,0-18.799,1.704-18.799,3.806
						s8.415,3.807,18.799,3.807C-8.417,3.807,0,2.102,0,0"/>
				</g>
			</g>
		</g>
	</g>
	<g id="g4909" transform="matrix(0.41144603,0,0,0.41144603,179.02789,270.89279)">
		<g id="g4911">
			<g id="g4917">
				<g id="g4919">
					
						<radialGradient id="path4931_1_" cx="-21.4717" cy="-628.5417" r="1" gradientTransform="matrix(-0.3575 -60.6142 -82.5924 0.4871 -51507.7344 -771.1727)" gradientUnits="userSpaceOnUse">
						<stop  offset="0" style="stop-color:#F9FAFB"/>
						<stop  offset="0.7359" style="stop-color:#CFDADF"/>
						<stop  offset="0.7359" style="stop-color:#CFDADF"/>
						<stop  offset="1" style="stop-color:#F1F3F5"/>
					</radialGradient>
					<path id="path4931" fill="url(#path4931_1_)" d="M397.324,248.525c-13.083-1.768-25.941-7.207-36.213-15.317l0,0
						c-11.421-9.02-18.782-20.565-21.282-33.386l0,0c-0.757-3.87-1.077-8.101-1.415-12.582l0,0
						c-1.318-17.467-3.149-28.073-17.423-28.073l0,0c-1.661,0-3.185-0.941-3.926-2.431l0,0c-0.743-1.49-0.579-3.272,0.423-4.601l0,0
						c19.292-25.597,52.399-28.556,75.622-28.556l0,0c0.591,0,1.177,0.001,1.758,0.004l0,0c0.425,0.003,0.867,0.004,1.322,0.004l0,0
						c0.664,0,1.354-0.002,2.068-0.005l0,0c0.771-0.002,1.568-0.003,2.387-0.003l0,0c10.849,0,22.298,0.525,32.511,4.332l0,0
						c18.135,6.763,33.417,21.969,38.932,38.736l0,0c6.222,18.923,3.332,38.073-8.139,53.925l0,0
						c-12.764,17.633-34.676,28.586-57.186,28.586l0,0C403.613,249.158,400.439,248.945,397.324,248.525"/>
				</g>
			</g>
		</g>
	</g>
	<g id="g4933" transform="matrix(0.41144603,0,0,0.41144603,179.02789,270.89279)">
		<g>
			<g id="g4935">
				<g id="g4941" transform="translate(406.7632,253.5488)">
					<path id="path4943" fill="#3D3D3D" d="M0,0c-3.345,0-6.719-0.228-10.026-0.674c-13.85-1.87-27.468-7.632-38.347-16.221
						c-12.257-9.68-20.166-22.126-22.872-35.992c-0.804-4.122-1.148-8.682-1.482-13.091c-0.521-6.902-1.059-14.039-3.253-18.704
						c-1.501-3.187-3.739-5.309-9.791-5.309c-3.327,0-6.371-1.884-7.856-4.863c-1.486-2.98-1.159-6.544,0.846-9.203
						c20.474-27.163,54.965-30.304,79.128-30.304c0.601,0,1.195,0.002,1.782,0.006c0.421,0.002,0.854,0.002,1.299,0.002
						c0.66,0,1.346-0.002,2.054-0.003c0.774-0.003,1.576-0.005,2.4-0.005c11.262,0,23.179,0.559,34.044,4.609
						c9.051,3.376,17.67,8.841,24.922,15.803c7.844,7.527,13.598,16.404,16.647,25.675c3.433,10.435,4.295,20.925,2.56,31.175
						c-1.621,9.583-5.428,18.565-11.314,26.698c-6.647,9.182-15.742,16.852-26.299,22.175C23.772-2.844,11.863,0,0,0 M0-8.782
						c39.565,0,74.78-35.321,61.155-76.749c-5.488-16.687-20.776-30.204-36.299-35.994C14.734-125.3,2.907-125.58-6.118-125.58
						c-1.577,0-3.072,0.009-4.454,0.009c-0.462,0-0.913-0.001-1.35-0.004c-0.569-0.004-1.148-0.005-1.731-0.005
						c-22.678,0-53.994,2.767-72.118,26.808c24.832,0,19.933,27.75,23.144,44.204C-57.733-29.49-32.924-12.627-8.852-9.375
						C-5.891-8.975-2.93-8.782,0-8.782"/>
				</g>
			</g>
		</g>
	</g>
	<g id="g4945" transform="matrix(0.41144603,0,0,0.41144603,179.0279,270.89279)">
		<g>
			<g id="g4947">
				<g id="g4953" transform="translate(381.5952,121.6973)">
					<path id="path4955" fill="#3D3D3D" d="M0,0c0.833-9.698-6.353-18.233-16.049-19.066c-9.699-0.833-18.234,6.35-19.066,16.048
						c-0.835,9.697,6.352,18.233,16.049,19.066C-9.372,16.883-0.835,9.697,0,0"/>
				</g>
			</g>
		</g>
	</g>
	<g id="g4957" transform="matrix(0.41144603,0,0,0.41144603,179.02789,270.89279)">
		<g>
			<g id="g4959">
				<g id="g4965" transform="translate(369.1758,120.37939)">
					<path id="path4967" fill="#515252" d="M0,0c0-3.151-2.211-5.706-4.937-5.706c-2.725,0-4.936,2.555-4.936,5.706
						s2.211,5.707,4.936,5.707C-2.211,5.707,0,3.151,0,0"/>
				</g>
			</g>
		</g>
	</g>
	<g id="g4969" transform="matrix(0.41144603,0,0,0.41144603,179.02789,270.89279)">
		<g>
			<g id="g4971">
				<g id="g4977" transform="translate(442.02541,121.6973)">
					<path id="path4979" fill="#3D3D3D" d="M0,0c0.834-9.698-6.352-18.233-16.047-19.066c-9.698-0.833-18.234,6.35-19.067,16.048
						c-0.835,9.697,6.35,18.233,16.049,19.066C-9.369,16.883-0.836,9.697,0,0"/>
				</g>
			</g>
		</g>
	</g>
	<g id="g4981" transform="matrix(0.41144603,0,0,0.41144603,179.02789,270.89279)">
		<g>
			<g id="g4983">
				<g id="g4989" transform="translate(429.60741,120.37939)">
					<path id="path4991" fill="#515252" d="M0,0c0-3.151-2.211-5.706-4.937-5.706c-2.728,0-4.936,2.555-4.936,5.706
						s2.208,5.707,4.936,5.707C-2.211,5.707,0,3.151,0,0"/>
				</g>
			</g>
		</g>
	</g>
	<g id="g4993" transform="matrix(0.41144603,0,0,0.41144603,179.02789,270.89279)">
		<g>
			<g id="g4995">
				<g id="g5001" transform="translate(391.9561,201.02831)">
					<path id="path5003" fill="#3D3D3D" d="M0,0c0-4.658-3.774-8.433-8.43-8.433S-16.862-4.658-16.862,0
						c0,4.656,3.776,8.431,8.432,8.431S0,4.656,0,0"/>
				</g>
			</g>
		</g>
	</g>
	<g id="g5005" transform="matrix(0.41144603,0,0,0.41144603,179.0279,270.89279)">
		<g>
			<g id="g5007">
				<g id="g5013" transform="translate(432.22659,202.3452)">
					<path id="path5015" fill="#3D3D3D" d="M0,0c0-4.658-3.773-8.433-8.431-8.433c-4.656,0-8.432,3.775-8.432,8.433
						c0,4.656,3.776,8.431,8.432,8.431C-3.773,8.431,0,4.656,0,0"/>
				</g>
			</g>
		</g>
	</g>
	<g id="g5017" transform="matrix(0.41144603,0,0,0.41144603,179.02789,270.8928)">
		<g>
			<g id="g5019">
				<g id="g5025" transform="translate(403.78371,155.8149)">
					<path id="path5027" fill="#3D3D3D" d="M0,0c-7.187,0-14.16,2.336-19.726,6.625C-25.382,10.984-29.031,17-29.734,23.133
						c-0.276,2.41,1.454,4.588,3.861,4.864c2.403,0.274,4.586-1.452,4.861-3.861C-19.939,14.783-8.761,8.538,0.642,8.79
						c11.982,0.314,19.9,7.48,21.527,14.396c0.556,2.359,2.92,3.821,5.28,3.268c2.359-0.556,3.822-2.919,3.267-5.279
						c-1.326-5.645-4.963-10.876-10.24-14.731C14.985,2.429,8.203,0.204,0.873,0.01C0.581,0.004,0.292,0,0,0"/>
				</g>
			</g>
		</g>
	</g>
	<g id="g5029" transform="matrix(0.41144603,0,0,0.41144603,179.02789,270.89279)">
		<g>
			<g id="g5031">
				<g id="g5037" transform="translate(519.59959,148.91409)">
					<path id="path5039" fill="#31cbfd" d="M0-17.235l-23.148,66.791c-0.534,1.591-1.239,4.241-1.239,6.538
						c0,6.183,4.95,12.192,12.897,12.192c6.717,0,11.135-4.239,13.078-10.423L16.078,9.8l14.844,47.886
						c1.941,6.361,6.891,10.779,13.779,10.779h1.59c6.893,0,11.842-4.418,13.787-10.779L75.094,9.622l14.844,48.414
						c1.765,5.655,5.83,10.25,12.898,10.25c7.424,0,12.545-5.653,12.545-12.37c0-1.765-0.529-4.239-0.883-5.476L90.645-17.235
						c-2.829-8.306-8.307-12.017-14.842-12.017h-0.885c-6.537,0-12.016,3.711-14.49,11.486l-15.02,47.708L30.213-17.766
						c-2.473-7.775-7.951-11.486-14.488-11.486h-0.883C8.303-29.252,2.826-25.541,0-17.235"/>
				</g>
			</g>
		</g>
	</g>
	<g id="g5041" transform="matrix(0.41144603,0,0,0.41144603,179.02789,270.89279)">
		<g>
			<g id="g5043">
				<g id="g5049" transform="translate(694.00391,172.061)">
					<path id="path5051" fill="#31cbfd" d="M0-17.235v4.771C-4.596-10.343-10.604-8.93-17.139-8.93
						c-11.486,0-18.554-4.595-18.554-13.077v-0.353c0-7.246,6.006-11.487,14.664-11.487C-8.482-33.847,0-26.953,0-17.235
						 M-61.67-23.419v0.352c0,20.675,15.727,30.217,38.168,30.217c9.543,0,16.432-1.59,23.147-3.888v1.59
						c0,11.132-6.889,17.316-20.319,17.316c-7.424,0-13.43-1.059-18.555-2.651c-1.589-0.53-2.65-0.706-3.888-0.706
						c-6.184,0-11.131,4.77-11.131,10.956c0,4.77,3.002,8.834,7.246,10.424c8.481,3.182,17.67,4.949,30.213,4.949
						c14.666,0,25.268-3.888,31.982-10.603c7.069-7.067,10.248-17.492,10.248-30.214v-43.117c0-7.243-5.83-12.896-13.074-12.896
						c-7.773,0-12.898,5.477-12.898,11.13v0.178c-6.539-7.245-15.551-12.017-28.623-12.017
						C-47.002-52.399-61.67-42.151-61.67-23.419"/>
				</g>
			</g>
		</g>
	</g>
	<g id="g5053" transform="matrix(0.41144603,0,0,0.41144603,179.02789,270.89278)">
		<g>
			<g id="g5055">
				<g id="g5061" transform="translate(723.6895,149.44341)">
					<path id="path5063" fill="#31cbfd" d="M0-17.235v0.532C0-11.579,1.766-8.224,6.006-3.63l44,48.592H12.545
						c-6.01,0-10.957,4.772-10.957,10.779c0,6.01,4.947,10.955,10.957,10.955h58.842c7.595,0,13.074-4.417,13.074-10.779v-0.53
						c0-5.123-1.768-8.48-6.008-13.074L34.277-6.279h39.227c6.01,0,10.957-4.949,10.957-10.956c0-6.008-4.947-10.777-10.957-10.777
						h-60.43C5.477-28.012,0-23.595,0-17.235"/>
				</g>
			</g>
		</g>
	</g>
	<g id="g5065" transform="matrix(0.41144603,0,0,0.41144603,179.02789,270.89279)">
		<g>
			<g id="g5067">
				<g id="g5073" transform="translate(872.8203,193.4409)">
					<path id="path5075" fill="#31cbfd" d="M0-17.235C-1.59-5.221-8.658,2.909-19.967,2.909c-11.131,0-18.377-7.952-20.496-20.144H0
						z M-17.316-74.132c-28.45,0-49.477,19.967-49.477,48.945v0.356c0,27.032,19.264,49.297,46.826,49.297
						c31.627,0,45.59-25.973,45.59-45.587c0-7.776-5.478-12.9-12.549-12.9h-53.185c2.65-12.192,11.134-18.552,23.148-18.552
						c7.42,0,13.606,2.297,19.084,6.36c1.943,1.414,3.711,2.121,6.539,2.121c6.006,0,10.424-4.595,10.424-10.601
						c0-3.536-1.59-6.187-3.535-7.952C7.244-69.714-3.533-74.132-17.316-74.132"/>
				</g>
			</g>
		</g>
	</g>
</g>
</svg>
